<svg id="Layer_1" xmlns="http://www.w3.org/2000/svg" viewBox="0 0 16 16"><style>.st-white{fill:#fff}</style><switch><g><path class="st-white" d="M11.7 7.9h-1c0-1.4-1.1-2.5-2.5-2.5v-1c1.9 0 3.5 1.5 3.5 3.5zM14.7 7.9h-1c0-3-2.5-5.5-5.5-5.5v-1c3.6 0 6.5 2.9 6.5 6.5zM12.7 11.1c-.8 0-1.6-.1-2.4-.4-.2-.1-.5 0-.7.2l-1.5 1.5c-1.9-1-3.4-2.5-4.4-4.4l1.5-1.5c.2-.2.3-.5.2-.7C5.2 5 5 4.2 5 3.4c0-.4-.3-.7-.6-.7H2c-.3 0-.6.3-.6.7 0 6.3 5.1 11.3 11.3 11.3.4 0 .7-.3.7-.7v-2.3c0-.3-.3-.6-.7-.6z"/></g></switch></svg>