<svg xmlns="http://www.w3.org/2000/svg" viewBox="0 0 16 16"><switch><g><path class="st-white" d="M.7 6.4H0V0h.9c1.2 0 2.4.3 2.4 1.8 0 1-.6 1.7-1.6 1.8l2.1 2.9h-1L.9 3.6H.7v2.8zM.7 3h.2c.8 0 1.6-.2 1.6-1.2C2.5.7 1.7.6.9.6H.7V3z"/><path class="st-red" d="M9.5 6C12 6 14 8 14 10.5S12 15 9.5 15 5 13 5 10.5 7 6 9.5 6m0-1C6.5 5 4 7.5 4 10.5S6.5 16 9.5 16s5.5-2.5 5.5-5.5S12.5 5 9.5 5z"/><path class="st-red" d="M11.6 8.4l-.8-.6-1.3 1.9-1.3-1.9-.8.6 1.5 2.2-1.5 2.1.8.6 1.3-1.9 1.3 1.9.8-.6-1.5-2.1z"/></g></switch></svg>