<svg id="Layer_1" xmlns="http://www.w3.org/2000/svg" viewBox="0 0 16 16"><style>.rotate-arrow,.rotate-arrow-2{-webkit-animation:rotation 4s infinite linear;-moz-animation:rotation 4s infinite linear;-o-animation:rotation 4s infinite linear;animation:rotation 4s infinite linear;transform-origin:50% 50%;-webkit-transform-origin:27% 27%;-moz-transform-origin:50% 50%}.rotate-arrow-2{-webkit-transform-origin:73% 73%}@-webkit-keyframes rotation{0%{-webkit-transform:rotate(359deg)}to{-webkit-transform:rotate(0deg)}}@-moz-keyframes rotation{0%{-moz-transform:rotate(359deg)}to{-moz-transform:rotate(0deg)}}@-o-keyframes rotation{0%{-o-transform:rotate(359deg)}to{-o-transform:rotate(0deg)}}@keyframes rotation{0%{transform:rotate(359deg)}to{transform:rotate(0deg)}}</style><switch><g><path class="st-white" d="M.7 6.4H0V0h.9c1.2 0 2.4.3 2.4 1.8 0 1-.6 1.7-1.6 1.8l2.1 2.9h-1L.9 3.6H.7v2.8zM.7 3h.2c.8 0 1.6-.2 1.6-1.2C2.5.7 1.7.6.9.6H.7V3z"/><path class="rotate-arrow st-yellow" d="M16 10.6l-1.5-2.1-1.5 2.1h1C14 13 12 15 9.5 15c-.7 0-1.4-.2-2-.5l-.4.9c.7.4 1.6.6 2.4.6 3 0 5.4-2.4 5.4-5.4H16z"/><path class="rotate-arrow-2 st-yellow" d="M9.6 4.9c-3 0-5.4 2.4-5.4 5.4h-1l1.4 2.1 1.4-2h-.9c0-2.5 2-4.4 4.4-4.4.7 0 1.4.2 2 .5l.5-1c-.7-.4-1.6-.6-2.4-.6z"/></g></switch></svg>