<svg id="Layer_1" xmlns="http://www.w3.org/2000/svg" viewBox="0 0 16 16"><style>.st0{fill:#777677}</style><switch><g><path class="st-grey" d="M2.7 14.4c.6-.6 1.2-1 1.9-1.4.2-.1.4-.3.4-.6v-2c2-.6 4-.6 6 0v2c0 .2.1.5.4.6.7.3 1.4.8 1.9 1.3.3.3.7.3.9 0l1.6-1.6c.3-.3.3-.7 0-.9-4.3-4.3-11.3-4.3-15.6 0-.3.3-.3.7 0 .9l1.6 1.6c.3.3.7.3.9.1zM7.5 1h1v5h-1z"/><path transform="rotate(30 13.4 4.715)" class="st-grey" d="M12.9 2.8h1v3.9h-1z"/><g><path transform="rotate(150 2.586 4.716)" class="st-grey" d="M2.1 2.8h1v3.9h-1z"/></g></g></switch></svg>