<svg id="Layer_1" xmlns="http://www.w3.org/2000/svg" viewBox="0 0 16 16"><style>.st0{fill:#fff}</style><switch><g><path class="st0" d="M16 9V7.1l-2.3-.6c-.2-.6-.4-1.1-.7-1.6l1.2-1.8-1.4-1.4-1.9 1.2c-.5-.3-1-.5-1.5-.6L9 0H7l-.5 2.2c-.6.1-1.2.4-1.7.7L3 1.6 1.6 3l1.2 1.9c-.4.5-.6 1.1-.7 1.7L0 7v1.9l2 .5c.1.6.4 1.1.7 1.6l-1.3 1.9 1.4 1.4 1.9-1.2c.5.3 1.1.6 1.7.7l.5 2.2h1.9l.5-2.2c.6-.1 1.1-.4 1.6-.7l1.8 1.2 1.4-1.4-1.1-1.8c.3-.5.5-1 .7-1.6L16 9zm-8 3.2c-2.3 0-4.1-1.8-4.1-4.1S5.7 4 8 4c2.2 0 4 1.8 4 4.1 0 2.2-1.8 4.1-4 4.1z"/></g></switch></svg>