<svg id="Layer_1" xmlns="http://www.w3.org/2000/svg" viewBox="0 0 16 16"><style>.st0{fill:#fff}</style><switch><g><path class="st0" d="M4.2 16c-.9 0-1.8-.4-2.4-1l-.8-.8c-1.3-1.3-1.3-3.5 0-4.8L4.4 6c1.3-1.3 3.5-1.3 4.8 0l.2.2c.3.3.3.8 0 1.1-.3.3-.8.3-1.1 0l-.2-.2c-.7-.7-1.9-.7-2.6 0l-3.4 3.4c-.7.7-.7 1.9 0 2.6l.8.8c.7.7 1.9.7 2.6 0l1.6-1.6c.3-.3.8-.3 1.1 0 .3.3.3.8 0 1.1L6.6 15c-.6.6-1.5 1-2.4 1z"/><path class="st0" d="M9.2 11c-.9 0-1.8-.4-2.4-1l-.2-.2c-.3-.3-.3-.8 0-1.1.3-.3.8-.3 1.1 0l.2.2c.7.7 1.9.7 2.6 0l3.4-3.4c.7-.7.7-1.9 0-2.6l-.8-.8c-.7-.7-1.9-.7-2.6 0L8.9 3.7c-.3.3-.8.3-1.1 0-.3-.3-.3-.8 0-1.1L9.4 1c1.3-1.3 3.5-1.3 4.8 0l.8.8c.6.6 1 1.5 1 2.4 0 .9-.4 1.8-1 2.4L11.6 10c-.6.7-1.5 1-2.4 1z"/></g></switch></svg>