<svg width="612" height="612" viewBox="0 0 612 612" xmlns="http://www.w3.org/2000/svg"><title>Slice 1</title><g fill="none" fill-rule="evenodd"><circle fill="#EEE" cx="312.954" cy="173.864" r="34.773"/><path d="M389.454 459h-41.726V236.455H236.455v27.818h41.727V459h-41.727v27.818h152.999V459z" fill="#EEE"/><path d="M612 306C612 137.004 474.995 0 306 0 137.004 0 0 137.004 0 306c0 168.995 137.004 306 306 306 168.995 0 306-137.005 306-306zm-584.182 0C27.818 152.36 152.36 27.818 306 27.818c153.64 0 278.182 124.542 278.182 278.182 0 153.64-124.542 278.182-278.182 278.182C152.36 584.182 27.818 459.64 27.818 306z" fill="#4990E2"/></g></svg>