<svg xmlns="http://www.w3.org/2000/svg" viewBox="0 0 21.333332 21.333332" height="21.333" width="21.333"><defs><clipPath id="a"><path d="M0 16h16V0H0z"/></clipPath></defs><g clip-path="url(#a)" transform="matrix(1.33333 0 0 -1.33333 0 21.333)"><path d="M10.99 10a5 5 0 1 1 .001-10.001 5 5 0 0 1 0 10.001m0-1c2.205 0 4-1.794 4-4s-1.795-4-4-4c-2.206 0-4 1.794-4 4s1.794 4 4 4" fill="#7c7b7c"/><path d="M12.84 6.75l-.82.574-1.024-1.464-1.024 1.464-.82-.574 1.234-1.761-1.233-1.761.819-.574 1.024 1.463 1.025-1.463.819.574-1.233 1.761zM1 11.01L1.009 15H14.99l.01-.01-.002-.99H16v.99A1.01 1.01 0 0 1 14.99 16H1.009A1.01 1.01 0 0 1 0 14.99v-3.98A1.01 1.01 0 0 1 1.009 10H3v1.008z" fill="#7c7b7c"/><path d="M6 9H5v3h10v-2h1v2.126a.875.875 0 0 1-.874.874H4.874A.875.875 0 0 1 4 12.126V8.874C4 8.392 4.392 8 4.874 8H6z" fill="#7c7b7c"/></g></svg>