<svg id="Layer_1" xmlns="http://www.w3.org/2000/svg" viewBox="0 0 16 16"><style>.st0{fill:#fff}</style><switch><g><path class="st0" d="M6.3 4.4h1.2l-.6 2.1h2.2l.6-2.1h1.2L9.5 9.9H8.3l.6-2.4H6.7L6 9.9H4.8l1.5-5.5z"/><path class="st0" d="M16 4.4h-1.3l-.6.6-2.4 2.4-2.3 2.5h1.4L12.5 8l.7 1.9h1.5L13.5 7zM.8 7L0 9.9h4.2l.3-1h-3l.4-1.4h2.7l.3-.9H2.1l.2-.7c-.6.4-1.1.7-1.5 1.1zM5.3 5.4l.3-1h-1c-.4.2-1 .6-1.6 1h2.3z"/><path class="st0" d="M12.5 4.4c-1.1-3-5.3-2.6-7.8-1.7-1.5.5-2.9 1.4-3.2 1.7l-.3 1.2c.5-.4 2-1.3 2-1.3s1-.6 2.5-1.2c2.1-.8 5.5-1 6.7 1.3h-1.3l.6 1.6 1-.9-.2-.7z"/></g></switch></svg>