<svg id="Layer_1" xmlns="http://www.w3.org/2000/svg" viewBox="0 0 16 16"><style>.st0{fill:#fff}</style><switch><g><path class="st0" d="M6 9v1c0 .9.6 1.7 1.5 1.9V16h1v-4.1c.9-.2 1.5-1 1.5-1.9V9H6zM8.5 3V.5C8.5.2 8.3 0 8 0s-.5.2-.5.5V3H6v4h4V3H8.5zM12 9v1c0 .9.6 1.7 1.5 1.9V16h1v-4.1c.9-.2 1.5-1 1.5-1.9V9h-4zM14.5 3V.5c0-.3-.2-.5-.5-.5s-.5.2-.5.5V3H12v4h4V3h-1.5z"/><g><path class="st0" d="M0 9v1c0 .9.6 1.7 1.5 1.9V16h1v-4.1c.9-.2 1.5-1 1.5-1.9V9H0zM2.5 3V.5C2.5.2 2.3 0 2 0s-.5.2-.5.5V3H0v4h4V3H2.5z"/></g></g></switch></svg>