<svg contentScriptType="text/ecmascript" width="20" baseProfile="full" height="20" xmlns="http://www.w3.org/2000/svg" version="1"><ellipse rx="1.75" ry="1.75" fill="#fff" cx="10" cy="7.333"/><path fill="#fff" d="M6.11 3.444a5.483 5.483 0 0 0-1.61 3.89c0 1.518.616 2.893 1.61 3.888l1.062-1.06A3.987 3.987 0 0 1 6 7.333c0-1.104.448-2.104 1.172-2.828L6.11 3.445zM16.364.97l-1.06 1.06A7.477 7.477 0 0 1 17.5 7.333c0 2.071-.84 3.946-2.197 5.304l1.061 1.06A8.972 8.972 0 0 0 19 7.333 8.972 8.972 0 0 0 16.364.97z"/><path fill="#fff" d="M3.636 13.697l1.06-1.06A7.476 7.476 0 0 1 2.5 7.333c0-2.07.84-3.946 2.197-5.303L3.636.97A8.972 8.972 0 0 0 1 7.332a8.972 8.972 0 0 0 2.636 6.364zM13.89 11.222a5.483 5.483 0 0 0 1.61-3.889 5.483 5.483 0 0 0-1.61-3.889l-1.062 1.06A3.987 3.987 0 0 1 14 7.335a3.987 3.987 0 0 1-1.172 2.828l1.061 1.06zM9.25 7.333h1.5v12h-1.5z"/></svg>