<svg xmlns="http://www.w3.org/2000/svg" id="Layer_1" viewBox="0 0 16 16"><style id="style50">.rotate-arrow{-webkit-animation:rotation 4s infinite linear;-moz-animation:rotation 4s infinite linear;-o-animation:rotation 4s infinite linear;animation:rotation 4s infinite linear;transform-origin:50% 55%;-webkit-transform-origin:50% 55%;-moz-transform-origin:50% 55%;transform:scale(1.25)}@-webkit-keyframes rotation{0%{-webkit-transform:rotate(359deg)}to{-webkit-transform:rotate(0deg)}}@-moz-keyframes rotation{0%{-moz-transform:rotate(359deg)}to{-moz-transform:rotate(0deg)}}@-o-keyframes rotation{0%{-o-transform:rotate(359deg)}to{-o-transform:rotate(0deg)}}@keyframes rotation{0%{transform:rotate(359deg)}to{transform:rotate(0deg)}}</style><g id="g82" class="rotate-arrow" transform="translate(-4 -5)"><path id="path56" d="M16 10.6l-1.5-2.1-1.5 2.1h1C14 13 12 15 9.5 15c-.7 0-1.4-.2-2-.5l-.4.9c.7.4 1.6.6 2.4.6 3 0 5.4-2.4 5.4-5.4z" class="st-white"/><path id="path58" d="M9.6 4.9c-3 0-5.4 2.4-5.4 5.4h-1l1.4 2.1 1.4-2h-.9c0-2.5 2-4.4 4.4-4.4.7 0 1.4.2 2 .5l.5-1c-.7-.4-1.6-.6-2.4-.6z" class="st-white"/></g></svg>