<svg xmlns="http://www.w3.org/2000/svg" viewBox="0 0 21.333332 21.333332" height="21.333" width="21.333"><defs><clipPath id="a"><path d="M0 16h16V0H0z"/></clipPath></defs><g clip-path="url(#a)" transform="matrix(1.33333 0 0 -1.33333 0 21.333)"><path d="M1 11.01L1.009 15H14.99l.01-.01-.002-.99H16v.99A1.01 1.01 0 0 1 14.99 16H1.009A1.01 1.01 0 0 1 0 14.99v-3.98A1.01 1.01 0 0 1 1.009 10H3v1.008z" fill="#7c7b7c"/><path d="M6 9H5v3h10v-2h1v2.126a.875.875 0 0 1-.874.874H4.874A.875.875 0 0 1 4 12.126V8.874C4 8.392 4.392 8 4.874 8H6z" fill="#7c7b7c"/><path d="M11 1C8.794 1 7 2.795 7 5c0 .962.352 1.835.923 2.522l2.573-2.582V3.823h1v.115l2.017-2.025A3.966 3.966 0 0 0 11 1m3.917.927l-.708.71a.008.008 0 0 0-.002-.004l-2.711 2.721v.005l-1 1.004v-.006l-3.637 3.649-.709-.705 1.068-1.072a4.913 4.913 0 0 1-1.216-3.214L6 5a5 5 0 0 1 5-5c1.233 0 2.348.464 3.22 1.204L15.275.145l.709.705-1.07 1.074zM15 5c0-.515-.11-.999-.291-1.449l.75-.751c.336.664.541 1.403.541 2.2 0 .02-.006.038-.006.059-.017 1.517-.722 2.858-1.805 3.763l-.709-.709C14.399 7.38 15 6.265 15 5M11.496 6.775v3.297h-1V7.78z" fill="#7c7b7c"/></g></svg>